<?xml version="1.0" encoding="UTF-8"?>
<svg id="Layer_2" data-name="Layer 2" xmlns="http://www.w3.org/2000/svg" viewBox="0 0 838.85 982.91">
  <defs>
    <style>
      .cls-1 {
        stroke-width: 7px;
      }

      .cls-1, .cls-2, .cls-3, .cls-4 {
        fill: none;
      }

      .cls-1, .cls-5, .cls-3, .cls-4 {
        stroke: #2b2b2b;
        stroke-miterlimit: 10;
      }

      .cls-6, .cls-5 {
        fill: #2b2b2b;
      }

      .cls-3 {
        stroke-width: 8px;
      }

      .cls-4 {
        stroke-width: 9px;
      }
    </style>
  </defs>
  <g id="Strokes">
    <g id="Symbol_Light" data-name="Symbol Light">
      <g id="Symbol">
        <g id="Sliced_one" data-name="Sliced one">
          <g>
            <path class="cls-5" d="M561.48,468.2V60.1c0-1.4-.88-2.68-2.18-3.19-.42-.16-.83-.23-1.25-.23-1.63,0-3.41,1.31-3.41,3.42v405.47s6.84,2.63,6.84,2.63Z"/>
            <path class="cls-5" d="M584.5,477.12V70.19c0-1.42-.86-2.67-2.18-3.19-.4-.15-.82-.23-1.24-.23-1.63,0-3.41,1.31-3.41,3.42v404.25s6.83,2.68,6.83,2.68Z"/>
            <path class="cls-5" d="M538.46,459.35s0-272.9,0-409.35c0-1.42-.86-2.67-2.2-3.19-.4-.15-.82-.23-1.23-.23-1.65,0-3.42,1.31-3.42,3.42,0,135.6,0,271.21,0,406.81,1.01.34,6.85,2.54,6.85,2.54Z"/>
          </g>
          <path class="cls-3" d="M517.56,451.29V16.78c0-5.29-3.26-10.03-8.19-11.93-2.96-1.14-6.23-1.14-9.19,0L236.01,106.59c-9.34,3.6-15.5,12.58-15.5,22.59v207.72c2.79,1.26,293.35,113.88,297.06,114.39Z"/>
        </g>
        <g>
          <g>
            <path class="cls-2" d="M0,419.35v547.56h21.21V419.35c0-7.44-7.47-12.57-14.42-9.9h0C2.7,411.03,0,414.96,0,419.35Z"/>
            <path class="cls-6" d="M119.29,966.91V422.39c0-2.36,1.43-4.43,3.63-5.28.66-.25,1.35-.39,2.03-.39,2.72,0,5.66,2.16,5.66,5.66v544.52s-11.32,0-11.32,0ZM81.18,966.91V439.1c0-2.32,1.45-4.44,3.61-5.28.7-.27,1.37-.39,2.07-.39,2.71,0,5.64,2.16,5.64,5.66v527.81s-11.32,0-11.32,0ZM43.07,966.91v-511.11c0-2.36,1.43-4.43,3.61-5.28.66-.25,1.35-.39,2.05-.39,2.71,0,5.64,2.16,5.64,5.66v511.11s-11.3,0-11.3,0Z"/>
          </g>
          <path class="cls-1" d="M322.77,959.39l-.98-229.2c1.21-18.1,11.7-29.8,23.89-35.25l291.26-112.2.02-29.33c.52-10.82-7.08-23.82-18.64-28.67l-439.1-169.05c-8.98-3-16.15,3.85-16.59,10.85v591.65"/>
        </g>
        <g>
          <g>
            <path class="cls-2" d="M838.85,642.15v340.76s-16.7,0-16.7,0v-340.76c0-5.86,5.88-9.9,11.35-7.79h0c3.22,1.24,5.35,4.34,5.35,7.79Z"/>
            <path class="cls-6" d="M736.01,982.91v-338.37c0-2.75,2.31-4.46,4.46-4.46.53,0,1.08.11,1.6.3,1.73.67,2.86,2.3,2.86,4.15v338.37s-8.92,0-8.92,0ZM766.01,982.91v-325.21c0-2.75,2.31-4.46,4.44-4.46.55,0,1.08.09,1.63.3,1.7.65,2.85,2.33,2.85,4.15v325.21s-8.92,0-8.92,0ZM796.03,982.91v-312.07c0-2.75,2.31-4.46,4.44-4.46.55,0,1.1.11,1.61.3,1.72.67,2.84,2.3,2.84,4.15v312.07s-8.9,0-8.9,0Z"/>
          </g>
          <path class="cls-4" d="M352.12,974.2s-.25-213.61.04-214.35-3.05-20.06,16.94-26.05l330.55-127.01c4.79-.87,9.28,1.57,9.3,7.85v360.55s-356.84-.99-356.84-.99Z"/>
        </g>
      </g>
    </g>
  </g>
</svg>